<svg width="18" height="20" viewBox="0 0 18 20" fill="none" xmlns="http://www.w3.org/2000/svg">
<path d="M1.1 9.95C1.1 6.55 3.2 3.75 6.1 2.55C8.9 1.45 12.1 2.05 14.4 4.05L13.3 4.65C13.2 4.65 13.2 4.65 13.2 4.65C13.1 4.75 13.1 4.85 13.2 4.85L14.8 5.85L16.4 6.85C16.5 6.85 16.5 6.85 16.5 6.85C16.5 6.85 16.6 6.85 16.6 6.75V4.95L16.7 3.05C16.7 2.95 16.7 2.95 16.7 2.95C16.7 2.85 16.6 2.85 16.5 2.85L15.4 3.45C13.7 1.85 11.5 0.949997 9.1 0.949997C7.9 0.949997 6.7 1.15 5.6 1.65C4.9 1.95 4.2 2.35 3.5 2.85C1.3 4.65 0 7.25 0 10.05C0 10.25 0 10.55 0.2 10.85C0.3 11.05 0.5 11.15 0.6 11.15H0.7C0.9 11.05 1.1 10.85 1.1 10.65V9.95Z" fill="#3A3A3C"/>
<path d="M17.5 8.84999C17.2 8.84999 17 9.04999 17 9.34999V10.05C17 12.55 15.8 14.85 13.9 16.35C10.8 18.85 6.39998 18.55 3.59998 15.85L4.49998 15.35C4.59998 15.35 4.59998 15.35 4.59998 15.35C4.69998 15.25 4.69998 15.15 4.59998 15.15L2.99998 14.15L1.39998 13.15C1.29998 13.15 1.29998 13.15 1.29998 13.15C1.29998 13.15 1.19998 13.15 1.19998 13.25V15.05L1.09998 16.85C1.09998 16.95 1.09998 16.95 1.09998 16.95C1.09998 17.05 1.19998 17.05 1.29998 17.05L2.59998 16.35C4.29998 18.05 6.59998 19.05 8.99998 19.05C14 19.05 18 15.05 18 10.05V9.34999C18 9.04999 17.8 8.84999 17.5 8.84999Z" fill="#3A3A3C"/>
<path d="M9.2 5.15001H8.9C7.9 5.15001 7 6.05001 7 7.15001V7.45001H6.2C5.9 7.45001 5.7 7.65001 5.7 7.85001L5 13.75C5 13.85 5 14.05 5.1 14.15C5.2 14.25 5.3 14.35 5.5 14.35L12.5 14.25C12.6 14.25 12.8 14.15 12.9 14.05C13 13.95 13 13.85 13 13.65L12.3 7.85001C12.3 7.55001 12.1 7.45001 11.8 7.45001H11.1V7.15001C11.1 6.05001 10.2 5.15001 9.2 5.15001ZM8 7.15001C8 6.55001 8.4 6.15001 8.9 6.15001H9.2C9.7 6.15001 10.1 6.55001 10.1 7.15001V7.45001H8V7.15001ZM11.4 8.45001L12 13.25L6.1 13.35L6.7 8.45001H7V9.25001C7 9.55001 7.2 9.75001 7.5 9.75001C7.8 9.75001 8 9.55001 8 9.25001V8.45001H10.1V9.15001C10.1 9.45001 10.3 9.65001 10.6 9.65001C10.9 9.65001 11.1 9.45001 11.1 9.15001V8.45001H11.4Z" fill="#3A3A3C"/>
</svg>
