<svg width="20" height="20" fill="none" xmlns="http://www.w3.org/2000/svg"><path d="M8.75502 10.0415c0 .3319-.08033.5809-.16065.9129-.08032.2489-.24096.4979-.4016.7468-.16065.166-.40161.332-.64257.498-.24097.1659-.56225.1659-.80322.1659-.32128 0-.56224-.0829-.80321-.1659-.24096-.083-.48193-.249-.64257-.498-.16064-.1659-.32128-.4149-.4016-.7468-.08033-.249-.16065-.581-.16065-.9129 0-.33196.08032-.58092.16065-.91287.08032-.24897.24096-.49793.4016-.74689.08032-.16598.32129-.33195.56225-.41494.24096-.08299.56225-.16597.80321-.16597.24097 0 .40161 0 .56225.08298.16064.08299.32129.08299.48193.24897.16064.08298.32128.24896.40161.33195.16064.16597.24096.24896.32128.41494.08032.16597.16064.33194.16064.58091.16065.16597.16065.41493.16065.58092zm-.80322 0c0-.24897 0-.49794-.08032-.66391-.08032-.16598-.16064-.33195-.24096-.49792-.08032-.16598-.24097-.24897-.40161-.33196-.16064-.08298-.32128-.08298-.56225-.08298-.24096 0-.4016 0-.56225.08298-.16064.08299-.32128.16598-.4016.33196-.08032.16597-.16064.33194-.24097.49792-.08032.16597-.08032.41494-.08032.66391 0 .249 0 .4979.08032.6639.08033.166.16065.3319.24097.4979.08032.166.24096.249.4016.332.16065.083.32129.083.56225.083.24097 0 .40161 0 .56225-.083s.32129-.166.40161-.332.16064-.3319.24096-.4979c.08032-.166.08032-.4149.08032-.6639zM10.2811 8.46473v1.3278h1.5261v.66387h-1.5261v1.8258h-.72287V7.88382h2.57027v.6639h-1.8474v-.08299zM13.6546 8.46473v1.3278h1.5261v.66387h-1.5261v1.8258h-.8032V7.88382h2.5703v.6639h-1.7671v-.08299z" fill="#3A3A3C"/><path d="M12.7711 20c-.3213 0-.5623-.083-.8032-.249l-1.6868-1.4107c-.1606-.166-.40158-.166-.56222 0l-1.68675 1.3278c-.32129.3319-.72289.3319-1.1245.2489-.40161-.166-.72289-.4979-.80321-.9129l-.56225-2.1576c-.08032-.166-.24096-.332-.40161-.332l-2.16867.166c-.40161 0-.80322-.166-1.04418-.4979-.24096-.332-.32128-.8299-.16064-1.1619l.80321-2.0746c.08032-.166 0-.415-.16064-.498L.64257 11.2033C.240964 10.8714 0 10.4564 0 10.0415c0-.41494.240964-.82988.562249-1.07884L2.32932 7.71784c.16064-.08299.24096-.33195.16064-.49792l-.72289-2.07469c-.16064-.41494-.08032-.91286.16064-1.24482.24096-.33195.64257-.49792 1.04418-.49792l2.16867.08299c.24097 0 .40161-.08299.48193-.33195L6.18474.995851c.08032-.414938.40161-.746888.80321-.9128634C7.38956-.0829876 7.79117 0 8.11245.33195L9.7992 1.74274c.16064.16597.4016.16597.5622 0L12.0482.414938c.3213-.248963.7229-.3319504 1.1245-.248963.4016.165975.7229.497925.8032.912865l.5623 2.15767c.0803.16598.2409.33195.4016.33195l2.1686-.08298c.4016 0 .8032.16597 1.0442.49792.241.33195.3213.82988.1607 1.16183L17.51 7.21992c-.0803.16597 0 .41493.1607.49792l1.7671 1.24482c.3212.24896.5622.6639.5622 1.07884 0 .4149-.241.8299-.5622 1.0788l-1.7671 1.2448c-.1607.083-.241.332-.1607.498l.7229 2.0747c.1607.4149.0804.8298-.1606 1.1618-.241.3319-.6426.5809-1.0442.4979l-2.1687-.083c-.2409 0-.4016.166-.4016.332l-.5622 2.1576c-.0803.415-.4016.7469-.8032.9129-.0804.083-.241.083-.3213.083zm-.3213-.9129c.1606.083.241.083.4016.083.1606-.083.241-.1659.3213-.3319l.5622-2.1577c.1607-.5809.6426-.9959 1.2852-.9129l2.1687.083c.1606 0 .3212-.083.4016-.166.0803-.0829.0803-.2489.0803-.4149l-.7229-2.0747c-.241-.5809 0-1.1618.4819-1.4938l1.7671-1.2448c.1606-.083.1606-.2489.1606-.3319 0-.16599-.0803-.24898-.1606-.33197l-1.7671-1.24481c-.4819-.33195-.6426-.99585-.4819-1.49378l.8032-2.07469c.0803-.16597 0-.33195-.0803-.41493-.0803-.08299-.241-.16598-.4016-.16598l-2.1687.08299c-.5622 0-1.1245-.33195-1.2048-.91287l-.5623-2.15767c0-.16598-.1606-.24896-.2409-.33195-.1607-.082989-.3213 0-.4016.08299L11.004 2.57261c-.4819.33195-1.12448.33195-1.52609 0L7.63052 1.07884c-.16064-.165977-.24096-.165977-.4016-.082989-.16065 0-.24097.082989-.32129.248959l-.56225 2.15768c-.16064.58091-.64257.99585-1.20482.91286l-2.16867-.08298c-.16064 0-.32129.08298-.40161.16597-.08032.16598-.08032.24896 0 .41494l.72289 2.07469c.24097.58091 0 1.16182-.48193 1.49377L1.04418 9.62656c-.160646.08298-.240967.24896-.240967.41494 0 .166.080321.249.160643.3319l1.767064 1.2449c.48193.3319.64257.9958.48193 1.4937l-.80321 2.0747c-.08032.166 0 .332.08032.415.16064.1659.32128.2489.40161.2489l2.16867-.083c.56225 0 1.1245.332 1.20482.9129l.56225 2.1577c0 .166.16064.2489.24096.3319.16065.083.32129 0 .40161-.083l1.68675-1.4108c.48192-.4149 1.12447-.3319 1.52607 0l1.7671 1.4108z" fill="#3A3A3C"/></svg>