<svg width="12" height="12" viewBox="0 0 12 12" fill="none" xmlns="http://www.w3.org/2000/svg">
<path d="M6.52941 5.9823L11.8941 0.60177C12.0353 0.460177 12.0353 0.247788 11.8941 0.106195C11.7529 -0.0353982 11.5412 -0.0353982 11.4 0.106195L5.96471 5.55752L0.6 0.106195C0.458824 -0.0353982 0.247059 -0.0353982 0.105882 0.106195C-0.0352941 0.176991 -0.0352941 0.460177 0.105882 0.60177L5.47059 5.9823L0.105882 11.3628C-0.0352941 11.5044 -0.0352941 11.7168 0.105882 11.8584C0.176471 12 0.247059 12 0.317647 12C0.388235 12 0.529412 12 0.6 11.9292L5.96471 6.47788L11.3294 11.9292C11.4 12 11.4706 12 11.6118 12C11.6824 12 11.8235 12 11.8941 11.9292C12.0353 11.7876 12.0353 11.5752 11.8941 11.4336L6.52941 5.9823Z" fill="white"/>
</svg>
