<svg width="19" height="19" viewBox="0 0 19 19" fill="none" xmlns="http://www.w3.org/2000/svg">
<path d="M5.23333 16.2667L1.03333 17.3667L2.23333 13.2667C-0.166675 9.26666 1.23333 3.96666 5.23333 1.66666C9.23333 -0.633341 14.5333 0.666658 16.8333 4.66666C19.1333 8.66666 17.8333 13.9667 13.8333 16.2667C11.2333 17.8667 7.83332 17.8667 5.23333 16.2667Z" stroke="#3A3A3C"/>
<path d="M9.97732 10.0536C10.3087 10.0536 10.5773 9.78501 10.5773 9.45364C10.5773 9.12227 10.3087 8.85364 9.97732 8.85364C9.64595 8.85364 9.37732 9.12227 9.37732 9.45364C9.37732 9.78501 9.64595 10.0536 9.97732 10.0536Z" stroke="#3A3A3C"/>
<path d="M13.5423 10.0536C13.8737 10.0536 14.1423 9.78501 14.1423 9.45364C14.1423 9.12227 13.8737 8.85364 13.5423 8.85364C13.211 8.85364 12.9423 9.12227 12.9423 9.45364C12.9423 9.78501 13.211 10.0536 13.5423 10.0536Z" stroke="#3A3A3C"/>
<path d="M6.41134 10.0536C6.74271 10.0536 7.01134 9.78501 7.01134 9.45364C7.01134 9.12227 6.74271 8.85364 6.41134 8.85364C6.07997 8.85364 5.81134 9.12227 5.81134 9.45364C5.81134 9.78501 6.07997 10.0536 6.41134 10.0536Z" stroke="#3A3A3C"/>
</svg>
