<svg width="22" height="14" viewBox="0 0 22 14" fill="none" xmlns="http://www.w3.org/2000/svg">
<path d="M18.7 11.6465H21V7.8465L17.7 2.9465H14V11.6465H15.1" stroke="#3A3A3C" stroke-miterlimit="10" stroke-linecap="round" stroke-linejoin="round"/>
<path d="M3.5 11.7465H1V0.546509H14.1V11.7465H7.1" stroke="#3A3A3C" stroke-miterlimit="10" stroke-linejoin="round"/>
<path d="M13.9 3.4465H7" stroke="#3A3A3C" stroke-miterlimit="10" stroke-linecap="round" stroke-linejoin="round"/>
<path d="M13.9 6.1465H4.39996" stroke="#3A3A3C" stroke-miterlimit="10" stroke-linecap="round" stroke-linejoin="round"/>
<path d="M13.9 8.74651H9" stroke="#3A3A3C" stroke-miterlimit="10" stroke-linecap="round" stroke-linejoin="round"/>
<path d="M18.8 4.54651H16.4V7.64651H20.9L18.8 4.54651Z" stroke="#3A3A3C" stroke-miterlimit="10" stroke-linecap="round" stroke-linejoin="round"/>
<path d="M5.26399 13.4155C6.2581 13.4155 7.06399 12.6096 7.06399 11.6155C7.06399 10.6214 6.2581 9.81549 5.26399 9.81549C4.26988 9.81549 3.46399 10.6214 3.46399 11.6155C3.46399 12.6096 4.26988 13.4155 5.26399 13.4155Z" stroke="#3A3A3C" stroke-miterlimit="10" stroke-linecap="round" stroke-linejoin="round"/>
<path d="M16.903 13.4535C17.8971 13.4535 18.703 12.6476 18.703 11.6535C18.703 10.6594 17.8971 9.85352 16.903 9.85352C15.9089 9.85352 15.103 10.6594 15.103 11.6535C15.103 12.6476 15.9089 13.4535 16.903 13.4535Z" stroke="#3A3A3C" stroke-miterlimit="10" stroke-linecap="round" stroke-linejoin="round"/>
</svg>
